<svg width="35" height="27" viewBox="0 0 35 27" fill="none" xmlns="http://www.w3.org/2000/svg">
<path d="M20.425 17.4439C19.5543 18.0244 18.5428 18.3312 17.5 18.3312C16.4572 18.3312 15.4458 18.0244 14.575 17.4439L0.233037 7.88221C0.153467 7.82917 0.0759473 7.77386 0 7.71699V23.3848C0 25.1811 1.45776 26.6068 3.22198 26.6068H31.7779C33.5743 26.6068 34.9999 25.149 34.9999 23.3848V7.71692C34.9238 7.77393 34.8462 7.82937 34.7664 7.88249L20.425 17.4439Z" fill="white"/>
<path d="M1.37061 6.17585L15.7126 15.7376C16.2555 16.0995 16.8777 16.2805 17.4999 16.2805C18.1222 16.2805 18.7445 16.0994 19.2874 15.7376L33.6294 6.17585C34.4876 5.60402 35 4.64699 35 3.61408C35 1.83803 33.5551 0.393188 31.7791 0.393188H3.22089C1.44491 0.393257 0 1.8381 0 3.61579C0 4.64699 0.512422 5.60402 1.37061 6.17585V6.17585Z" fill="white"/>
</svg>
