<svg width="12" height="13" viewBox="0 0 12 13" fill="none" xmlns="http://www.w3.org/2000/svg">
<path d="M11.5715 12.9905C11.458 12.9834 11.349 12.9458 11.2572 12.8822L6 7.84819L0.742788 12.8824C0.685467 12.94 0.610318 12.979 0.528157 12.9936C0.445996 13.0082 0.361061 12.9977 0.285576 12.9637C0.202763 12.9358 0.130982 12.8845 0.0799171 12.8167C0.0288519 12.7489 0.000958727 12.6679 0 12.5847V0.406052C0.0027289 0.299174 0.0487687 0.197388 0.128577 0.121792C0.208385 0.0461951 0.315842 0.00258489 0.428675 0L11.5715 0C11.6843 0.00263441 11.7917 0.0462664 11.8715 0.121858C11.9513 0.197449 11.9973 0.299207 12 0.406052V12.5847C11.999 12.6643 11.9743 12.7421 11.9288 12.8091C11.8833 12.8761 11.8188 12.9296 11.7428 12.9635C11.6888 12.9855 11.6301 12.9948 11.5715 12.9905ZM6 7.03589C6.11655 7.03535 6.23207 7.0566 6.33994 7.09841C6.44781 7.14023 6.54592 7.20178 6.62864 7.27956L11.1429 11.6098V0.811908H0.857143V11.6104L5.37136 7.28014C5.4541 7.20241 5.55221 7.14089 5.66008 7.09911C5.76795 7.05733 5.88346 7.03611 6 7.03667V7.03589Z" fill="black"/>
</svg>
