<svg width="16" height="16" viewBox="0 0 16 16" fill="none" xmlns="http://www.w3.org/2000/svg">
<path d="M2.33584 3.7515C2.04271 3.85451 1.7888 4.04601 1.60919 4.29954C1.42958 4.55308 1.33313 4.85612 1.33317 5.16683V11.8335C1.33317 12.5849 1.63168 13.3056 2.16303 13.837C2.69439 14.3683 3.41506 14.6668 4.1665 14.6668H10.8332C11.1439 14.6669 11.4469 14.5704 11.7005 14.3908C11.954 14.2112 12.1455 13.9573 12.2485 13.6642L10.8505 13.6668H4.1665C3.68027 13.6668 3.21396 13.4737 2.87014 13.1299C2.52632 12.786 2.33317 12.3197 2.33317 11.8335V5.16683L2.33584 5.13283V3.7515ZM4.5025 1.3335C4.10468 1.3335 3.72315 1.49153 3.44184 1.77284C3.16054 2.05414 3.0025 2.43567 3.0025 2.8335V11.4982C3.0025 11.896 3.16054 12.2775 3.44184 12.5588C3.72315 12.8401 4.10468 12.9982 4.5025 12.9982H13.1665C13.5643 12.9982 13.9459 12.8401 14.2272 12.5588C14.5085 12.2775 14.6665 11.896 14.6665 11.4982V2.8335C14.6665 2.43567 14.5085 2.05414 14.2272 1.77284C13.9459 1.49153 13.5643 1.3335 13.1665 1.3335H4.5025ZM4.5025 2.3335H13.1665C13.2991 2.3335 13.4263 2.38617 13.5201 2.47994C13.6138 2.57371 13.6665 2.70089 13.6665 2.8335V11.4982C13.6665 11.7742 13.4425 11.9982 13.1665 11.9982H4.50184C4.36923 11.9982 4.24205 11.9455 4.14828 11.8517C4.05451 11.7579 4.00184 11.6308 4.00184 11.4982V2.8335C4.00184 2.70089 4.05451 2.57371 4.14828 2.47994C4.24205 2.38617 4.36989 2.3335 4.5025 2.3335ZM8.83317 4.50016C8.70056 4.50016 8.57339 4.55284 8.47962 4.64661C8.38585 4.74038 8.33317 4.86755 8.33317 5.00016V6.66683H6.6665C6.5339 6.66683 6.40672 6.71951 6.31295 6.81328C6.21918 6.90704 6.1665 7.03422 6.1665 7.16683C6.1665 7.29944 6.21918 7.42661 6.31295 7.52038C6.40672 7.61415 6.5339 7.66683 6.6665 7.66683H8.33317V9.3335C8.33317 9.4661 8.38585 9.59328 8.47962 9.68705C8.57339 9.78082 8.70056 9.8335 8.83317 9.8335C8.96578 9.8335 9.09296 9.78082 9.18672 9.68705C9.28049 9.59328 9.33317 9.4661 9.33317 9.3335V7.66683H10.9998C11.1324 7.66683 11.2596 7.61415 11.3534 7.52038C11.4472 7.42661 11.4998 7.29944 11.4998 7.16683C11.4998 7.03422 11.4472 6.90704 11.3534 6.81328C11.2596 6.71951 11.1324 6.66683 10.9998 6.66683H9.33317V5.00016C9.33317 4.86755 9.28049 4.74038 9.18672 4.64661C9.09296 4.55284 8.96578 4.50016 8.83317 4.50016Z" fill="#666666"/>
</svg>
